<svg width="23" height="32" viewBox="0 0 23 32" fill="none" xmlns="http://www.w3.org/2000/svg">
<mask id="mask0" mask-type="alpha" maskUnits="userSpaceOnUse" x="0" y="0" width="23" height="32">
<path fill-rule="evenodd" clip-rule="evenodd" d="M0.00012207 0.541321L22.1999 0.541321V31.4836H0.00012207L0.00012207 0.541321L0.00012207 0.541321Z" fill="white"/>
</mask>
<g mask="url(#mask0)">
<path fill-rule="evenodd" clip-rule="evenodd" d="M19.9372 11.1324C19.9372 19.5609 13.3692 26.6934 11.1001 28.9064C8.8309 26.6934 2.2629 19.5609 2.2629 11.1324C2.2629 6.47486 6.21796 2.69988 11.1001 2.69988C15.9811 2.69988 19.9372 6.47486 19.9372 11.1324M10.3391 31.2017C10.5541 31.3855 10.8159 31.484 11.1043 31.484C11.3906 31.484 11.6493 31.3814 11.86 31.2017C11.8887 31.1773 22.2 22.2512 22.2 11.1324C22.2 5.28356 17.2296 0.54071 11.1001 0.54071C4.9695 0.54071 0.00012207 5.28356 0.00012207 11.1324C0.00012207 22.2512 10.3103 31.1763 10.3391 31.2017" fill="white"/>
<path fill-rule="evenodd" clip-rule="evenodd" d="M10.8374 14.2163C12.5858 14.2163 14.0025 12.8445 14.0025 11.1504C14.0025 9.45745 12.5847 8.08458 10.8374 8.08458C9.08899 8.08458 7.6712 9.45745 7.6712 11.1504C7.6712 12.8445 9.08899 14.2163 10.8374 14.2163M10.8374 16.3977C7.84498 16.3977 5.41843 14.048 5.41843 11.1504C5.41843 8.25388 7.84604 5.90318 10.8374 5.90318C13.8287 5.90318 16.2553 8.25388 16.2553 11.1504C16.2553 14.048 13.8287 16.3977 10.8374 16.3977" fill="white"/>
</g>
</svg>
